<svg xmlns="http://www.w3.org/2000/svg" viewBox="0 0 512 512">
  <defs>
    <linearGradient id="bg" x1="0" y1="0" x2="1" y2="1">
      <stop offset="0%" stop-color="#1f4037"/>
      <stop offset="100%" stop-color="#0d1f17"/>
    </linearGradient>
    <linearGradient id="glow" x1="0" y1="0" x2="0" y2="1">
      <stop offset="0%" stop-color="#7ee787"/>
      <stop offset="100%" stop-color="#2ea043"/>
    </linearGradient>
  </defs>
  <rect width="512" height="512" rx="112" fill="url(#bg)"/>
  <!-- 魔法书 -->
  <path d="M256 96c-38-24-92-28-128-8v296c36-20 90-16 128 8 38-24 92-28 128-8V88c-36-20-90-16-128 8z"
        fill="none" stroke="url(#glow)" stroke-width="18" stroke-linejoin="round"/>
  <!-- 书脊 -->
  <path d="M256 96v296" stroke="url(#glow)" stroke-width="18"/>
  <!-- 附魔符文 -->
  <g fill="url(#glow)">
    <path d="M256 168l14 42 42 14-42 14-14 42-14-42-42-14 42-14z"/>
    <circle cx="196" cy="248" r="8"/>
    <circle cx="316" cy="248" r="8"/>
    <circle cx="256" cy="308" r="8"/>
    <circle cx="256" cy="188" r="8"/>
  </g>
</svg>
